<?xml version="1.0" encoding="utf-8"?>
<!-- Generator: Adobe Illustrator 16.0.0, SVG Export Plug-In . SVG Version: 6.00 Build 0)  -->
<!DOCTYPE svg PUBLIC "-//W3C//DTD SVG 1.1//EN" "http://www.w3.org/Graphics/SVG/1.1/DTD/svg11.dtd">
<svg version="1.1" id="Layer_1" xmlns="http://www.w3.org/2000/svg" xmlns:xlink="http://www.w3.org/1999/xlink" x="0px" y="0px"
	 width="77.619px" height="71.955px" viewBox="0 0 77.619 71.955" enable-background="new 0 0 77.619 71.955" xml:space="preserve">
<g>
	<path fill="none" stroke="#F8A01D" stroke-width="3" stroke-linecap="round" stroke-linejoin="round" stroke-miterlimit="10" d="
		M1.521,18.664c0,0,3.094,17.057,3.1,22.813c0.005,5.836-2.582,17.32-3.1,23.132c-0.286,3.21,2.644,5.846,5.894,5.846
		c15.698,0,47.093,0,62.792,0c3.248,0,6.084-2.628,5.893-5.846c-0.346-5.796-2.07-17.326-2.066-23.132
		c0.004-5.727,2.066-22.813,2.066-22.813 M4.829,14.531 M2.762,1.399"/>
	<path fill="none" stroke="#F8A01D" stroke-width="3" stroke-linecap="round" stroke-linejoin="round" stroke-miterlimit="10" d="
		M22.65,29.763v7.398c0,8.839,7.249,16.029,16.158,16.029c8.91,0,16.16-7.19,16.16-16.029v-7.398"/>
	<path fill="none" stroke="#F8A01D" stroke-width="3" stroke-linecap="round" stroke-linejoin="round" stroke-miterlimit="10" d="
		M27.696,29.763c0-2.72-2.23-4.933-4.972-4.933s-4.972,2.213-4.972,4.933"/>
	<path fill="none" stroke="#F8A01D" stroke-width="3" stroke-linecap="round" stroke-linejoin="round" stroke-miterlimit="10" d="
		M59.865,29.763c0-2.721-2.229-4.933-4.971-4.933s-4.973,2.212-4.973,4.933"/>
	<path fill="none" stroke="#F8A01D" stroke-width="3" stroke-linecap="round" stroke-linejoin="round" stroke-miterlimit="10" d="
		M3.046,1.5l5.336,6.138C8.423,7.684,8.444,7.748,8.478,7.8c0.047,0.071,0.095,0.138,0.128,0.217
		c0.011,0.032,0.036,0.056,0.046,0.087c0.021,0.058,0.021,0.12,0.034,0.18C8.707,8.374,8.724,8.459,8.73,8.551
		c0.002,0.034,0.017,0.065,0.017,0.101L1.5,18.664h74.619L68.873,8.652c0-0.035,0.014-0.066,0.016-0.101
		c0.006-0.093,0.023-0.178,0.045-0.267c0.016-0.059,0.012-0.122,0.033-0.18C68.978,8.072,69,8.049,69.013,8.017
		c0.033-0.079,0.08-0.146,0.129-0.217c0.033-0.052,0.055-0.116,0.094-0.162L74.57,1.5h-5.201H3.046z"/>
</g>
<line fill="none" stroke="#F8A01D" stroke-width="2" stroke-linecap="round" stroke-linejoin="round" stroke-miterlimit="10" x1="2.762" y1="2.657" x2="4.829" y2="14.531"/>
<line fill="none" stroke="#F8A01D" stroke-width="2" stroke-linecap="round" stroke-linejoin="round" stroke-miterlimit="10" x1="74.763" y1="1.657" x2="72.671" y2="13.899"/>
</svg>
