<?xml version="1.0" encoding="utf-8"?>
<!-- Generator: Adobe Illustrator 16.0.0, SVG Export Plug-In . SVG Version: 6.00 Build 0)  -->
<!DOCTYPE svg PUBLIC "-//W3C//DTD SVG 1.1//EN" "http://www.w3.org/Graphics/SVG/1.1/DTD/svg11.dtd">
<svg version="1.1" id="Layer_1" xmlns="http://www.w3.org/2000/svg" xmlns:xlink="http://www.w3.org/1999/xlink" x="0px" y="0px"
	 width="95.299px" height="83.971px" viewBox="0 0 95.299 83.971" enable-background="new 0 0 95.299 83.971" xml:space="preserve">
<g>
	<path fill="none" stroke="#F8A01D" stroke-width="3" stroke-linecap="round" stroke-linejoin="round" stroke-miterlimit="10" d="
		M27.615,17.049c-5.82,0-10.556,4.733-10.556,10.551c0,5.819,4.736,10.55,10.556,10.55c5.821,0,10.556-4.731,10.556-10.55
		C38.171,21.782,33.436,17.049,27.615,17.049z"/>
	<path fill="none" stroke="#F8A01D" stroke-width="3" stroke-linecap="round" stroke-linejoin="round" stroke-miterlimit="10" d="
		M27.599,1.5C13.207,1.5,1.5,13.446,1.5,28.129c0,13.211,21.423,40.824,26.099,46.689c4.672-5.868,26.1-33.481,26.1-46.689
		C53.697,13.446,41.989,1.5,27.599,1.5z"/>
</g>
<g>
	<path fill="none" stroke="#F8A01D" stroke-width="3" stroke-linecap="round" stroke-linejoin="round" stroke-miterlimit="10" d="
		M36.395,64.207l5.022,18.264l52.382-14.408L82.994,28.777l-30.295,8.332"/>
	<path fill="none" stroke="#F8A01D" stroke-width="2" stroke-linecap="round" stroke-linejoin="round" stroke-miterlimit="10" d="
		M73.26,44.602l5.237-1.441l1.44,5.239l-5.237,1.44L73.26,44.602z"/>
	<path fill="none" stroke="#F8A01D" stroke-width="2" stroke-linecap="round" stroke-linejoin="round" stroke-miterlimit="10" d="
		M43.968,68.954l17.462-4.803"/>
	<path fill="none" stroke="#F8A01D" stroke-width="2" stroke-linecap="round" stroke-linejoin="round" stroke-miterlimit="10" d="
		M42.768,63.536l6.985-1.921"/>
</g>
<line fill="none" stroke="#F8A01D" stroke-width="2" stroke-linecap="round" stroke-linejoin="round" stroke-miterlimit="10" x1="55.937" y1="37.173" x2="55.29" y2="39.256"/>
<line fill="none" stroke="#F8A01D" stroke-width="2" stroke-linecap="round" stroke-linejoin="round" stroke-miterlimit="10" x1="62.222" y1="35.472" x2="61.575" y2="37.555"/>
<line fill="none" stroke="#F8A01D" stroke-width="2" stroke-linecap="round" stroke-linejoin="round" stroke-miterlimit="10" x1="68.508" y1="33.771" x2="67.861" y2="35.854"/>
<line fill="none" stroke="#F8A01D" stroke-width="2" stroke-linecap="round" stroke-linejoin="round" stroke-miterlimit="10" x1="74.793" y1="32.07" x2="74.147" y2="34.153"/>
<line fill="none" stroke="#F8A01D" stroke-width="2" stroke-linecap="round" stroke-linejoin="round" stroke-miterlimit="10" x1="81.079" y1="30.37" x2="80.432" y2="32.452"/>
<line fill="none" stroke="#F8A01D" stroke-width="2" stroke-linecap="round" stroke-linejoin="round" stroke-miterlimit="10" x1="44.616" y1="78.125" x2="43.968" y2="80.208"/>
<line fill="none" stroke="#F8A01D" stroke-width="2" stroke-linecap="round" stroke-linejoin="round" stroke-miterlimit="10" x1="50.901" y1="76.424" x2="50.253" y2="78.508"/>
<line fill="none" stroke="#F8A01D" stroke-width="2" stroke-linecap="round" stroke-linejoin="round" stroke-miterlimit="10" x1="57.186" y1="74.723" x2="56.54" y2="76.807"/>
<line fill="none" stroke="#F8A01D" stroke-width="2" stroke-linecap="round" stroke-linejoin="round" stroke-miterlimit="10" x1="63.472" y1="73.022" x2="62.825" y2="75.105"/>
<line fill="none" stroke="#F8A01D" stroke-width="2" stroke-linecap="round" stroke-linejoin="round" stroke-miterlimit="10" x1="69.758" y1="71.321" x2="69.11" y2="73.404"/>
<line fill="none" stroke="#F8A01D" stroke-width="2" stroke-linecap="round" stroke-linejoin="round" stroke-miterlimit="10" x1="76.043" y1="69.621" x2="75.396" y2="71.703"/>
<line fill="none" stroke="#F8A01D" stroke-width="2" stroke-linecap="round" stroke-linejoin="round" stroke-miterlimit="10" x1="82.329" y1="67.92" x2="81.682" y2="70.004"/>
<line fill="none" stroke="#F8A01D" stroke-width="2" stroke-linecap="round" stroke-linejoin="round" stroke-miterlimit="10" x1="88.614" y1="66.22" x2="87.967" y2="68.302"/>
</svg>
