<?xml version="1.0" encoding="utf-8"?>
<!-- Generator: Adobe Illustrator 16.0.0, SVG Export Plug-In . SVG Version: 6.00 Build 0)  -->
<!DOCTYPE svg PUBLIC "-//W3C//DTD SVG 1.1//EN" "http://www.w3.org/Graphics/SVG/1.1/DTD/svg11.dtd">
<svg version="1.1" id="Layer_1" xmlns="http://www.w3.org/2000/svg" xmlns:xlink="http://www.w3.org/1999/xlink" x="0px" y="0px"
	 width="51.881px" height="37.505px" viewBox="0 0 51.881 37.505" enable-background="new 0 0 51.881 37.505" xml:space="preserve">
<g>
	<polygon fill="#F8A01D" points="16.75,0 16.75,13.125 19.75,13.125 19.75,3 29,3 29,9.458 31.706,6.232 34.118,8.561 36.165,6.186 
		39,9.529 39,3 48.868,3 48.756,27.033 44.592,27.125 44.659,30.125 51.743,29.967 51.881,0 	"/>
	<circle fill="#F8A01D" cx="39.75" cy="23.25" r="1.5"/>
	<circle fill="#F8A01D" cx="44.75" cy="23.25" r="1.5"/>
	<path fill="#F8A01D" d="M39.838,28.224c-0.578,0-1.26,0.033-2.219,0.111c-0.055,0.006-5.535,0.523-8.615,0.523
		c-0.98,0-1.439-0.054-1.58-0.078c-1.799-0.666-4.138-2.35-4.619-3.703c-0.125-0.352-0.111-0.648,0.075-0.975
		c0.246-0.614,0.852-0.743,1.317-0.743c0.448,0,0.954,0.122,1.423,0.343c0.92,0.434,3.453,1.492,5.428,1.295
		c0.752-0.074,1.82-0.483,2.391-1.203c0.318-0.404,0.455-0.875,0.395-1.295c0-1.107-1.711-1.734-3.693-2.459
		c-0.527-0.193-1.057-0.387-1.531-0.585c-1.391-0.579-2.58-1.085-3.622-1.528c-5.133-2.184-6.684-2.844-10.339-2.844
		c-0.001,0-0.002,0-0.003,0c-1.792,0.073-2.842,0.265-3.952,0.469c-1.827,0.335-3.929,0.722-10.187,0.614
		c-0.15-0.006-0.264,0.049-0.358,0.144C0.054,16.404,0,16.533,0,16.667V26.5c0,0.141,0.06,0.275,0.164,0.371
		c0.104,0.094,0.243,0.14,0.383,0.127c0.011-0.001,1.025-0.096,2.254-0.096c1.633,0,2.871,0.164,3.583,0.474
		c3.108,1.354,6.65,3.798,9.774,5.953c3.385,2.334,6.057,4.177,7.473,4.177c0.06,0,0.117-0.002,0.256-0.024
		c0.132-0.038,13.2-3.759,16.245-4.581c1.664-0.449,3.291-1.625,3.027-2.903C42.883,28.434,41.327,28.224,39.838,28.224z"/>
</g>
</svg>
