<?xml version="1.0" encoding="utf-8"?>
<!-- Generator: Adobe Illustrator 16.0.0, SVG Export Plug-In . SVG Version: 6.00 Build 0)  -->
<!DOCTYPE svg PUBLIC "-//W3C//DTD SVG 1.1//EN" "http://www.w3.org/Graphics/SVG/1.1/DTD/svg11.dtd">
<svg version="1.1" id="Layer_1" xmlns="http://www.w3.org/2000/svg" xmlns:xlink="http://www.w3.org/1999/xlink" x="0px" y="0px"
	 width="91.293px" height="112.412px" viewBox="0 0 91.293 112.412" enable-background="new 0 0 91.293 112.412"
	 xml:space="preserve">
<polygon fill="none" stroke="#F8A01D" stroke-width="3" stroke-linecap="round" stroke-linejoin="round" stroke-miterlimit="10" points="
	10.302,62.743 10.302,90.282 44.764,110.849 79.786,89.356 79.786,62.743 44.764,83.311 "/>
<line fill="none" stroke="#F8A01D" stroke-width="3.126" stroke-linecap="round" stroke-linejoin="round" stroke-miterlimit="10" x1="44.764" y1="83.311" x2="44.764" y2="110.849"/>
<polyline fill="none" stroke="#F8A01D" stroke-width="3" stroke-linecap="round" stroke-linejoin="round" stroke-miterlimit="10" points="
	79.786,62.743 89.793,46.994 54.586,67.005 44.764,83.311 "/>
<path fill="none" stroke="#F8A01D" stroke-width="2.084" stroke-linecap="round" stroke-linejoin="round" stroke-miterlimit="10" d="
	M17.343,32.357c0,1.023-0.828,1.852-1.854,1.852c-1.022,0-1.852-0.829-1.852-1.852c0-1.024,0.829-1.853,1.852-1.853
	C16.515,30.504,17.343,31.333,17.343,32.357z"/>
<circle fill="none" stroke="#F8A01D" stroke-width="2.084" stroke-linecap="round" stroke-linejoin="round" stroke-miterlimit="10" cx="44.952" cy="70.155" r="1.853"/>
<circle fill="none" stroke="#F8A01D" stroke-width="2.084" stroke-linecap="round" stroke-linejoin="round" stroke-miterlimit="10" cx="56.253" cy="15.495" r="1.853"/>
<circle fill="none" stroke="#F8A01D" stroke-width="2.084" stroke-linecap="round" stroke-linejoin="round" stroke-miterlimit="10" cx="70.335" cy="2.895" r="1.853"/>
<circle fill="none" stroke="#F8A01D" stroke-width="2.084" stroke-linecap="round" stroke-linejoin="round" stroke-miterlimit="10" cx="70.15" cy="32.357" r="1.853"/>
<path fill="none" stroke="#F8A01D" stroke-width="2.084" stroke-linecap="round" stroke-linejoin="round" stroke-miterlimit="10" d="
	M38.65,62.93c0.557-2.78,5.001-25.015-12.785-39.468"/>
<path fill="none" stroke="#F8A01D" stroke-width="2.084" stroke-linecap="round" stroke-linejoin="round" stroke-miterlimit="10" d="
	M43.651,29.392c0-6.3-1.851-12.599-9.262-15.009"/>
<path fill="none" stroke="#F8A01D" stroke-width="2.084" stroke-linecap="round" stroke-linejoin="round" stroke-miterlimit="10" d="
	M26.977,55.148c0-4.818-1.481-14.269-13.525-14.454"/>
<path fill="none" stroke="#F8A01D" stroke-width="2.084" stroke-linecap="round" stroke-linejoin="round" stroke-miterlimit="10" d="
	M52.176,62.002c-0.555-3.89-2.963-25.94,12.787-38.354"/>
<path fill="none" stroke="#F8A01D" stroke-width="2.084" stroke-linecap="round" stroke-linejoin="round" stroke-miterlimit="10" d="
	M59.588,58.112c1.113-3.151,4.818-12.415,16.676-12.601"/>
<polygon fill="none" stroke="#F8A01D" stroke-width="2.084" stroke-linecap="round" stroke-linejoin="round" stroke-miterlimit="10" points="
	48.563,2.028 49.653,5.379 53.178,5.379 50.325,7.452 51.417,10.803 48.563,8.731 45.715,10.803 46.801,7.452 43.952,5.379 
	47.475,5.379 "/>
<polygon fill="none" stroke="#F8A01D" stroke-width="2.084" stroke-linecap="round" stroke-linejoin="round" stroke-miterlimit="10" points="
	20.494,7.171 21.582,10.521 25.104,10.521 22.253,12.593 23.342,15.944 20.494,13.873 17.642,15.944 18.731,12.593 15.879,10.521 
	19.404,10.521 "/>
<polygon fill="none" stroke="#F8A01D" stroke-width="2.084" stroke-linecap="round" stroke-linejoin="round" stroke-miterlimit="10" points="
	73.856,11.617 74.946,14.968 78.469,14.968 75.62,17.04 76.708,20.391 73.856,18.32 71.004,20.391 72.094,17.04 69.245,14.968 
	72.768,14.968 "/>
<line fill="none" stroke="#F8A01D" stroke-width="3" stroke-linecap="round" stroke-linejoin="round" stroke-miterlimit="10" x1="65.579" y1="54.886" x2="70.29" y2="57.556"/>
<polyline fill="none" stroke="#F8A01D" stroke-width="3" stroke-linecap="round" stroke-linejoin="round" stroke-miterlimit="10" points="
	42.08,45.049 45.274,43.381 48.612,45.049 "/>
<line fill="none" stroke="#F8A01D" stroke-width="3" stroke-linecap="round" stroke-linejoin="round" stroke-miterlimit="10" x1="31.518" y1="50.885" x2="35.131" y2="48.8"/>
<polyline fill="none" stroke="#F8A01D" stroke-width="3" stroke-linecap="round" stroke-linejoin="round" stroke-miterlimit="10" points="
	9.827,42.962 1.5,47.411 10.302,62.743 22.142,56.188 "/>
<line fill="none" stroke="#F8A01D" stroke-width="3" stroke-linecap="round" stroke-linejoin="round" stroke-miterlimit="10" x1="27.765" y1="33.376" x2="19.813" y2="37.624"/>
<path fill="#F8A01D" d="M61.821,93.415l-11.258,6.457c-0.252,0.143-0.34,0.461-0.193,0.709c0.096,0.172,0.277,0.266,0.461,0.264
	c0.084-0.002,0.17-0.023,0.248-0.07l11.262-6.457c0.248-0.143,0.334-0.461,0.191-0.709C62.389,93.358,62.067,93.272,61.821,93.415z"
	/>
<polygon fill="#F8A01D" points="52.194,97.085 54.325,96.067 54.456,88.39 55.618,87.848 53.286,84.958 51.09,89.622 52.385,89.208 
	"/>
<polygon fill="#F8A01D" points="58.385,93.747 60.518,92.731 60.647,85.053 61.809,84.511 59.479,81.622 57.284,86.286 
	58.577,85.872 "/>
</svg>
